<?xml version="1.0" encoding="UTF-8"?><svg xmlns="http://www.w3.org/2000/svg" xmlns:xlink="http://www.w3.org/1999/xlink" fill-opacity="1" color-rendering="auto" color-interpolation="auto" text-rendering="auto" stroke="black" stroke-linecap="square" width="1012" stroke-miterlimit="10" shape-rendering="auto" stroke-opacity="1" fill="black" stroke-dasharray="none" font-weight="normal" stroke-width="1" height="714" font-family="'Dialog'" font-style="normal" stroke-linejoin="miter" font-size="12px" stroke-dashoffset="0" image-rendering="auto">
  <!--Generated by ySVG 2.5-->
  <defs id="genericDefs"/>
  <g>
    <defs id="defs1">
      <clipPath clipPathUnits="userSpaceOnUse" id="clipPath1">
        <path d="M0 0 L1012 0 L1012 714 L0 714 L0 0 Z"/>
      </clipPath>
      <clipPath clipPathUnits="userSpaceOnUse" id="clipPath2">
        <path d="M197 197 L1209 197 L1209 911 L197 911 L197 197 Z"/>
      </clipPath>
      <clipPath clipPathUnits="userSpaceOnUse" id="clipPath3">
        <path d="M246.8115 -18 L246.8115 994 L-467.1885 994 L-467.1885 -18 L246.8115 -18 Z"/>
      </clipPath>
      <clipPath clipPathUnits="userSpaceOnUse" id="clipPath4">
        <path d="M483.8555 -18 L483.8555 994 L-230.1445 994 L-230.1445 -18 L483.8555 -18 Z"/>
      </clipPath>
    </defs>
    <g fill="white" text-rendering="geometricPrecision" shape-rendering="geometricPrecision" transform="translate(-197,-197)" stroke="white">
      <rect x="197" width="1012" height="714" y="197" clip-path="url(#clipPath2)" stroke="none"/>
    </g>
    <g fill="rgb(236,245,255)" text-rendering="geometricPrecision" shape-rendering="geometricPrecision" transform="matrix(1,0,0,1,-197,-197)" stroke="rgb(236,245,255)">
      <path d="M212 212.9482 L212 242.9482 L947.3281 242.9482 L947.3281 212.9482 Z" stroke="none" clip-path="url(#clipPath2)"/>
      <rect x="212" width="735.3281" height="532.8047" y="242.9482" clip-path="url(#clipPath2)" stroke="none"/>
      <rect x="236" y="242.9482" clip-path="url(#clipPath2)" fill="rgb(113,146,178)" width="255" height="24" stroke="none"/>
      <rect x="491" y="242.9482" clip-path="url(#clipPath2)" fill="rgb(113,146,178)" width="120" height="24" stroke="none"/>
      <rect x="611" y="242.9482" clip-path="url(#clipPath2)" fill="rgb(113,146,178)" width="148" height="24" stroke="none"/>
      <rect x="759" y="242.9482" clip-path="url(#clipPath2)" fill="rgb(113,146,178)" width="188.3281" height="24" stroke="none"/>
      <rect x="212" y="266.9482" clip-path="url(#clipPath2)" fill="rgb(196,215,237)" width="24" height="217" stroke="none"/>
      <rect x="236" y="266.9482" clip-path="url(#clipPath2)" fill="rgb(196,215,237)" width="711.3281" height="217" stroke="none"/>
      <rect x="212" y="483.9482" clip-path="url(#clipPath2)" fill="rgb(171,200,226)" width="24" height="291.8047" stroke="none"/>
      <rect x="236" y="483.9482" clip-path="url(#clipPath2)" fill="rgb(171,200,226)" width="711.3281" height="291.8047" stroke="none"/>
    </g>
    <g text-rendering="geometricPrecision" stroke-miterlimit="1.45" shape-rendering="geometricPrecision" transform="matrix(1,0,0,1,-197,-197)" stroke-linecap="butt">
      <rect fill="none" x="212" width="735.3281" height="562.8047" y="212.9482" clip-path="url(#clipPath2)"/>
      <rect fill="none" x="236" width="255" height="532.8047" y="242.9482" clip-path="url(#clipPath2)"/>
      <rect fill="none" x="491" width="120" height="532.8047" y="242.9482" clip-path="url(#clipPath2)"/>
      <rect fill="none" x="611" width="148" height="532.8047" y="242.9482" clip-path="url(#clipPath2)"/>
      <rect fill="none" x="759" width="188.3281" height="532.8047" y="242.9482" clip-path="url(#clipPath2)"/>
      <rect fill="none" x="212" width="735.3281" height="217" y="266.9482" clip-path="url(#clipPath2)"/>
      <rect fill="none" x="212" width="735.3281" height="291.8047" y="483.9482" clip-path="url(#clipPath2)"/>
    </g>
    <g font-size="15px" stroke-linecap="butt" transform="matrix(1,0,0,1,-197,-197)" text-rendering="geometricPrecision" font-family="sans-serif" shape-rendering="geometricPrecision" stroke-miterlimit="1.45">
      <text x="477.1287" xml:space="preserve" y="234.0288" clip-path="url(#clipPath2)" stroke="none">meta-rdk-bsp-arm components</text>
    </g>
    <g text-rendering="geometricPrecision" stroke-miterlimit="1.45" shape-rendering="geometricPrecision" font-family="sans-serif" transform="matrix(-0,-1,1,-0,18,246.8115)" stroke-linecap="butt">
      <text x="2" xml:space="preserve" y="14.0645" clip-path="url(#clipPath3)" stroke="none">Operating System Image</text>
    </g>
    <g text-rendering="geometricPrecision" stroke-miterlimit="1.45" shape-rendering="geometricPrecision" font-family="sans-serif" transform="matrix(-0,-1,1,-0,18,483.8555)" stroke-linecap="butt">
      <text x="2" xml:space="preserve" y="14.0645" clip-path="url(#clipPath4)" stroke="none">Platform Firmware</text>
    </g>
    <g text-rendering="geometricPrecision" stroke-miterlimit="1.45" shape-rendering="geometricPrecision" font-family="sans-serif" transform="matrix(1,0,0,1,-197,-197)" stroke-linecap="butt">
      <text x="328.4902" xml:space="preserve" y="260.0127" clip-path="url(#clipPath2)" stroke="none">Generic / VM</text>
      <text x="538.6631" xml:space="preserve" y="260.0127" clip-path="url(#clipPath2)" stroke="none">NXP</text>
      <text x="641.9863" xml:space="preserve" y="260.0127" clip-path="url(#clipPath2)" stroke="none">BCM27XX / RPI</text>
      <text x="828.4873" xml:space="preserve" y="260.0127" clip-path="url(#clipPath2)" stroke="none">Rockchip</text>
    </g>
    <g fill="white" text-rendering="geometricPrecision" shape-rendering="geometricPrecision" transform="matrix(1,0,0,1,-197,-197)" stroke="white">
      <rect x="271" width="170" height="30" y="526" clip-path="url(#clipPath2)" stroke="none"/>
    </g>
    <g text-rendering="geometricPrecision" stroke-miterlimit="1.45" shape-rendering="geometricPrecision" transform="matrix(1,0,0,1,-197,-197)" stroke-linecap="butt">
      <rect fill="none" x="271" width="170" height="30" y="526" clip-path="url(#clipPath2)"/>
      <text x="286.3027" xml:space="preserve" y="545.7139" clip-path="url(#clipPath2)" font-family="sans-serif" stroke="none">BL33: U-Boot / EDKII / etc</text>
    </g>
    <g fill="white" text-rendering="geometricPrecision" shape-rendering="geometricPrecision" transform="matrix(1,0,0,1,-197,-197)" stroke="white">
      <rect x="498" width="97" height="30" y="526" clip-path="url(#clipPath2)" stroke="none"/>
    </g>
    <g text-rendering="geometricPrecision" stroke-miterlimit="1.45" shape-rendering="geometricPrecision" transform="matrix(1,0,0,1,-197,-197)" stroke-linecap="butt">
      <rect fill="none" x="498" width="97" height="30" y="526" clip-path="url(#clipPath2)"/>
      <text x="527.8262" xml:space="preserve" y="545.7139" clip-path="url(#clipPath2)" font-family="sans-serif" stroke="none">U-Boot</text>
    </g>
    <g fill="white" text-rendering="geometricPrecision" shape-rendering="geometricPrecision" transform="matrix(1,0,0,1,-197,-197)" stroke="white">
      <rect x="633" width="97" height="30" y="526" clip-path="url(#clipPath2)" stroke="none"/>
    </g>
    <g text-rendering="geometricPrecision" stroke-miterlimit="1.45" shape-rendering="geometricPrecision" transform="matrix(1,0,0,1,-197,-197)" stroke-linecap="butt">
      <rect fill="none" x="633" width="97" height="30" y="526" clip-path="url(#clipPath2)"/>
      <text x="662.8262" xml:space="preserve" y="545.7139" clip-path="url(#clipPath2)" font-family="sans-serif" stroke="none">U-Boot</text>
    </g>
    <g fill="white" text-rendering="geometricPrecision" shape-rendering="geometricPrecision" transform="matrix(1,0,0,1,-197,-197)" stroke="white">
      <rect x="633" width="97" height="109" y="572" clip-path="url(#clipPath2)" stroke="none"/>
    </g>
    <g text-rendering="geometricPrecision" stroke-miterlimit="1.45" shape-rendering="geometricPrecision" transform="matrix(1,0,0,1,-197,-197)" stroke-linecap="butt">
      <rect fill="none" x="633" width="97" height="109" y="572" clip-path="url(#clipPath2)"/>
      <text x="671.498" xml:space="preserve" y="616.5127" clip-path="url(#clipPath2)" font-family="sans-serif" stroke="none">RPI</text>
      <text x="662.1523" xml:space="preserve" y="631.2139" clip-path="url(#clipPath2)" font-family="sans-serif" stroke="none">Vendor</text>
      <text x="656.501" xml:space="preserve" y="645.915" clip-path="url(#clipPath2)" font-family="sans-serif" stroke="none">Firmware</text>
    </g>
    <g fill="white" text-rendering="geometricPrecision" shape-rendering="geometricPrecision" transform="matrix(1,0,0,1,-197,-197)" stroke="white">
      <rect x="783.5" width="122" height="30" y="526" clip-path="url(#clipPath2)" stroke="none"/>
    </g>
    <g text-rendering="geometricPrecision" stroke-miterlimit="1.45" shape-rendering="geometricPrecision" transform="matrix(1,0,0,1,-197,-197)" stroke-linecap="butt">
      <rect fill="none" x="783.5" width="122" height="30" y="526" clip-path="url(#clipPath2)"/>
      <text x="825.8262" xml:space="preserve" y="545.7139" clip-path="url(#clipPath2)" font-family="sans-serif" stroke="none">U-Boot</text>
    </g>
    <g fill="white" text-rendering="geometricPrecision" shape-rendering="geometricPrecision" transform="matrix(1,0,0,1,-197,-197)" stroke="white">
      <rect x="783.5" width="122" height="109" y="572" clip-path="url(#clipPath2)" stroke="none"/>
    </g>
    <g text-rendering="geometricPrecision" stroke-miterlimit="1.45" shape-rendering="geometricPrecision" transform="matrix(1,0,0,1,-197,-197)" stroke-linecap="butt">
      <rect fill="none" x="783.5" width="122" height="109" y="572" clip-path="url(#clipPath2)"/>
      <text x="788.8213" xml:space="preserve" y="616.5127" clip-path="url(#clipPath2)" font-family="sans-serif" stroke="none">TrustedFirmware.org</text>
      <text x="826.4971" xml:space="preserve" y="631.2139" clip-path="url(#clipPath2)" font-family="sans-serif" stroke="none">(wraps</text>
      <text x="789.4863" xml:space="preserve" y="645.915" clip-path="url(#clipPath2)" font-family="sans-serif" stroke="none">RK vendor firmware)</text>
    </g>
    <g fill="white" text-rendering="geometricPrecision" shape-rendering="geometricPrecision" transform="matrix(1,0,0,1,-197,-197)" stroke="white">
      <rect x="498" width="97" height="69" y="612" clip-path="url(#clipPath2)" stroke="none"/>
    </g>
    <g text-rendering="geometricPrecision" stroke-miterlimit="1.45" shape-rendering="geometricPrecision" transform="matrix(1,0,0,1,-197,-197)" stroke-linecap="butt">
      <rect fill="none" x="498" width="97" height="69" y="612" clip-path="url(#clipPath2)"/>
      <text x="526.1592" xml:space="preserve" y="643.8633" clip-path="url(#clipPath2)" font-family="sans-serif" stroke="none">Trusted</text>
      <text x="511.1621" xml:space="preserve" y="658.5645" clip-path="url(#clipPath2)" font-family="sans-serif" stroke="none">Firmware.org</text>
    </g>
    <g fill="white" text-rendering="geometricPrecision" shape-rendering="geometricPrecision" transform="matrix(1,0,0,1,-197,-197)" stroke="white">
      <rect x="498" width="97" height="30" y="569" clip-path="url(#clipPath2)" stroke="none"/>
    </g>
    <g text-rendering="geometricPrecision" stroke-miterlimit="1.45" shape-rendering="geometricPrecision" transform="matrix(1,0,0,1,-197,-197)" stroke-linecap="butt">
      <rect fill="none" x="498" width="97" height="30" y="569" clip-path="url(#clipPath2)"/>
      <text x="521.8291" xml:space="preserve" y="588.7139" clip-path="url(#clipPath2)" font-family="sans-serif" stroke="none">OP-TEE*</text>
    </g>
    <g fill="white" text-rendering="geometricPrecision" shape-rendering="geometricPrecision" transform="matrix(1,0,0,1,-197,-197)" stroke="white">
      <rect x="498" width="97" height="30" y="697" clip-path="url(#clipPath2)" stroke="none"/>
    </g>
    <g text-rendering="geometricPrecision" stroke-miterlimit="1.45" shape-rendering="geometricPrecision" transform="matrix(1,0,0,1,-197,-197)" stroke-linecap="butt">
      <rect fill="none" x="498" width="97" height="30" y="697" clip-path="url(#clipPath2)"/>
      <text x="508.4932" xml:space="preserve" y="709.3633" clip-path="url(#clipPath2)" font-family="sans-serif" stroke="none">DPAA2 (NPU)</text>
      <text x="524.5068" xml:space="preserve" y="724.0645" clip-path="url(#clipPath2)" font-family="sans-serif" stroke="none">MC F/W</text>
    </g>
    <g fill="white" text-rendering="geometricPrecision" shape-rendering="geometricPrecision" transform="matrix(1,0,0,1,-197,-197)" stroke="white">
      <rect x="271" width="170" height="69" y="612" clip-path="url(#clipPath2)" stroke="none"/>
    </g>
    <g text-rendering="geometricPrecision" stroke-miterlimit="1.45" shape-rendering="geometricPrecision" transform="matrix(1,0,0,1,-197,-197)" stroke-linecap="butt">
      <rect fill="none" x="271" width="170" height="69" y="612" clip-path="url(#clipPath2)"/>
      <text x="321.6494" xml:space="preserve" y="643.8633" clip-path="url(#clipPath2)" font-family="sans-serif" stroke="none">BL2: Trusted</text>
      <text x="318.3271" xml:space="preserve" y="658.5645" clip-path="url(#clipPath2)" font-family="sans-serif" stroke="none">Firmware.org*</text>
    </g>
    <g fill="white" text-rendering="geometricPrecision" shape-rendering="geometricPrecision" transform="matrix(1,0,0,1,-197,-197)" stroke="white">
      <rect x="271" width="170" height="30" y="569" clip-path="url(#clipPath2)" stroke="none"/>
    </g>
    <g text-rendering="geometricPrecision" stroke-miterlimit="1.45" shape-rendering="geometricPrecision" transform="matrix(1,0,0,1,-197,-197)" stroke-linecap="butt">
      <rect fill="none" x="271" width="170" height="30" y="569" clip-path="url(#clipPath2)"/>
      <text x="313.9824" xml:space="preserve" y="588.7139" clip-path="url(#clipPath2)" font-family="sans-serif" stroke="none">BL32: OP-TEE*</text>
    </g>
    <g fill="white" text-rendering="geometricPrecision" shape-rendering="geometricPrecision" transform="matrix(1,0,0,1,-197,-197)" stroke="white">
      <rect x="505" width="409" height="147" y="288.5" clip-path="url(#clipPath2)" stroke="none"/>
    </g>
    <g font-size="24px" stroke-linecap="butt" transform="matrix(1,0,0,1,-197,-197)" text-rendering="geometricPrecision" font-family="sans-serif" shape-rendering="geometricPrecision" stroke-miterlimit="1.45">
      <text x="561.4924" xml:space="preserve" y="342.0254" clip-path="url(#clipPath2)" stroke="none">Same OS image can work on</text>
      <text x="643.5413" xml:space="preserve" y="371.4277" clip-path="url(#clipPath2)" stroke="none">platforms with</text>
      <text x="532.1663" xml:space="preserve" y="400.8301" clip-path="url(#clipPath2)" stroke="none">SystemReady compatible firmware</text>
    </g>
    <g fill="silver" text-rendering="geometricPrecision" shape-rendering="geometricPrecision" transform="matrix(1,0,0,1,-197,-197)" stroke="silver">
      <rect x="278.5" width="170" height="30" y="379.3" clip-path="url(#clipPath2)" stroke="none"/>
    </g>
    <g text-rendering="geometricPrecision" stroke-miterlimit="1.45" shape-rendering="geometricPrecision" transform="matrix(1,0,0,1,-197,-197)" stroke-linecap="butt">
      <rect fill="none" x="278.5" width="170" height="30" y="379.3" clip-path="url(#clipPath2)"/>
      <text x="330.1455" xml:space="preserve" y="399.0139" clip-path="url(#clipPath2)" font-family="sans-serif" stroke="none">Linux Kernel</text>
    </g>
    <g fill="silver" text-rendering="geometricPrecision" shape-rendering="geometricPrecision" transform="matrix(1,0,0,1,-197,-197)" stroke="silver">
      <rect x="278.5" width="170" height="30" y="418.3" clip-path="url(#clipPath2)" stroke="none"/>
    </g>
    <g text-rendering="geometricPrecision" stroke-miterlimit="1.45" shape-rendering="geometricPrecision" transform="matrix(1,0,0,1,-197,-197)" stroke-linecap="butt">
      <rect fill="none" x="278.5" width="170" height="30" y="418.3" clip-path="url(#clipPath2)"/>
      <text x="325.1504" xml:space="preserve" y="438.0139" clip-path="url(#clipPath2)" font-family="sans-serif" stroke="none">systemd-boot*</text>
    </g>
    <g fill="rgb(51,102,255)" text-rendering="geometricPrecision" shape-rendering="geometricPrecision" transform="matrix(1,0,0,1,-197,-197)" stroke="rgb(51,102,255)">
      <rect x="278.5" width="170" height="69" y="301.3" clip-path="url(#clipPath2)" stroke="none"/>
    </g>
    <g text-rendering="geometricPrecision" stroke-miterlimit="1.45" shape-rendering="geometricPrecision" transform="matrix(1,0,0,1,-197,-197)" stroke-linecap="butt">
      <rect fill="none" x="278.5" width="170" height="69" y="301.3" clip-path="url(#clipPath2)"/>
      <text x="328.8213" xml:space="preserve" y="340.5139" clip-path="url(#clipPath2)" font-family="sans-serif" stroke="none">RDK-B Linux</text>
      <rect fill="none" x="261.5" width="204" height="171" y="288.5" clip-path="url(#clipPath2)"/>
      <text x="247.126" y="815.7467" clip-path="url(#clipPath2)" font-family="sans-serif" font-style="italic" stroke="none" xml:space="preserve">*QEMU only requires BL33 (U-Boot/EDKII),</text>
      <text x="260.1309" y="830.4479" clip-path="url(#clipPath2)" font-family="sans-serif" font-style="italic" stroke="none" xml:space="preserve">but OP-TEE and TrustedFirmware can</text>
      <text x="301.457" y="845.149" clip-path="url(#clipPath2)" font-family="sans-serif" font-style="italic" stroke="none" xml:space="preserve">be used when required</text>
      <text x="250.4629" y="859.8502" clip-path="url(#clipPath2)" font-family="sans-serif" font-style="italic" stroke="none" xml:space="preserve">OP-TEE is not currently part of the RDK-B</text>
      <text x="270.7803" y="874.5514" clip-path="url(#clipPath2)" font-family="sans-serif" font-style="italic" stroke="none" xml:space="preserve">reference, but may be in the future</text>
      <text x="969.8854" y="305.208" clip-path="url(#clipPath2)" font-family="sans-serif" font-style="italic" stroke="none" xml:space="preserve">RDK-B Reference OS Image is common</text>
      <text x="997.2047" y="319.9092" clip-path="url(#clipPath2)" font-family="sans-serif" font-style="italic" stroke="none" xml:space="preserve">between supported machines.</text>
      <text x="1075.5885" y="334.6104" clip-path="url(#clipPath2)" font-family="sans-serif" font-style="italic" stroke="none" xml:space="preserve"> </text>
      <text x="1004.8922" y="349.3115" clip-path="url(#clipPath2)" font-family="sans-serif" font-style="italic" stroke="none" xml:space="preserve">Per-machine customization</text>
      <text x="1003.8873" y="364.0127" clip-path="url(#clipPath2)" font-family="sans-serif" font-style="italic" stroke="none" xml:space="preserve">(e.g kernel version) allowed</text>
      <text x="1037.233" y="378.7139" clip-path="url(#clipPath2)" font-family="sans-serif" font-style="italic" stroke="none" xml:space="preserve">where required</text>
      <text x="1075.5885" y="393.415" clip-path="url(#clipPath2)" font-family="sans-serif" font-style="italic" stroke="none" xml:space="preserve"> </text>
      <text x="1009.568" y="408.1162" clip-path="url(#clipPath2)" font-family="sans-serif" font-style="italic" stroke="none" xml:space="preserve">Some platforms (e.g RPI)</text>
      <text x="1009.5973" y="422.8174" clip-path="url(#clipPath2)" font-family="sans-serif" font-style="italic" stroke="none" xml:space="preserve">may provide a 'combined'</text>
      <text x="1011.4049" y="437.5186" clip-path="url(#clipPath2)" font-family="sans-serif" font-style="italic" stroke="none" xml:space="preserve">OS+Platform image/WIC</text>
      <text x="1022.2272" y="452.2197" clip-path="url(#clipPath2)" font-family="sans-serif" font-style="italic" stroke="none" xml:space="preserve">for initial deployment</text>
      <text x="590.3247" font-size="10px" y="822.3615" clip-path="url(#clipPath2)" font-family="sans-serif" font-style="italic" stroke="none" xml:space="preserve">BLX levels correspond to the TrustedFirmware boot stages</text>
      <text x="627.002" font-size="10px" y="834.6124" clip-path="url(#clipPath2)" font-family="sans-serif" font-style="italic" stroke="none" xml:space="preserve">Each stage runs at a lower priviledge level</text>
      <text x="693.7061" font-size="10px" y="846.8634" clip-path="url(#clipPath2)" font-family="sans-serif" font-style="italic" stroke="none" xml:space="preserve">References:</text>
      <text x="548.3643" font-size="10px" y="859.1144" clip-path="url(#clipPath2)" font-family="sans-serif" font-style="italic" stroke="none" xml:space="preserve">https://trustedfirmware-a.readthedocs.io/en/latest/design/firmware-design.html</text>
      <text x="540.5786" font-size="10px" y="871.3654" clip-path="url(#clipPath2)" font-family="sans-serif" font-style="italic" stroke="none" xml:space="preserve">https://github.com/rdkcentral/meta-rdk-bsp-arm/blob/develop/doc/bootprocess.md</text>
      <text x="1028.2506" y="564.2103" clip-path="url(#clipPath2)" font-family="sans-serif" font-style="italic" stroke="none" xml:space="preserve">Platform Firmware</text>
      <text x="1029.9" y="578.9115" clip-path="url(#clipPath2)" font-family="sans-serif" font-style="italic" stroke="none" xml:space="preserve">is specific to each</text>
      <text x="1063.9166" y="593.6127" clip-path="url(#clipPath2)" font-family="sans-serif" font-style="italic" stroke="none" xml:space="preserve">SoC.</text>
      <text x="1016.8805" y="608.3138" clip-path="url(#clipPath2)" font-family="sans-serif" font-style="italic" stroke="none" xml:space="preserve">Ideally each supported</text>
      <text x="1006.8903" y="623.015" clip-path="url(#clipPath2)" font-family="sans-serif" font-style="italic" stroke="none" xml:space="preserve">machine will use the same</text>
      <text x="989.2155" y="637.7162" clip-path="url(#clipPath2)" font-family="sans-serif" font-style="italic" stroke="none" xml:space="preserve">versions of common components</text>
      <text x="1006.9137" y="652.4174" clip-path="url(#clipPath2)" font-family="sans-serif" font-style="italic" stroke="none" xml:space="preserve">(U-Boot, OP-TEE, TF etc.)</text>
      <path fill="none" d="M465.5 374 L950.4555 374" clip-path="url(#clipPath2)"/>
      <path d="M961.4555 374 L949.4555 368 L949.4555 380 Z" clip-path="url(#clipPath2)" stroke="none"/>
    </g>
  </g>
</svg>
